<?xml version="1.0" encoding="UTF-8" standalone="no"?>
<!DOCTYPE svg PUBLIC "-//W3C//DTD SVG 1.1//EN" "http://www.w3.org/Graphics/SVG/1.1/DTD/svg11.dtd">
<svg version="1.1" xmlns="http://www.w3.org/2000/svg" xmlns:xlink="http://www.w3.org/1999/xlink" preserveAspectRatio="xMidYMid meet" viewBox="0 0 640 640" width="768" height="768"><defs><path d="" id="b1lcYPdDNz"></path><path d="" id="l1Pyidgvi"></path><path d="M693.75 42.5C693.75 91.14 526.28 130.63 320 130.63C113.72 130.63 -53.75 91.14 -53.75 42.5C-53.75 -6.14 113.72 -45.62 320 -45.62C526.28 -45.62 693.75 -6.14 693.75 42.5Z" id="bTlaYi9b"></path><linearGradient id="gradienta2DtfrZ6" gradientUnits="userSpaceOnUse" x1="320" y1="47.5" x2="320" y2="130.63"><stop style="stop-color: #fffefe;stop-opacity: 0.13" offset="0%"></stop><stop style="stop-color: #9c9494;stop-opacity: 0.61" offset="100%"></stop></linearGradient></defs><g><g><g><g><use xlink:href="#b1lcYPdDNz" opacity="1" fill-opacity="0" stroke="#000000" stroke-width="1" stroke-opacity="1"></use></g></g><g><g><use xlink:href="#l1Pyidgvi" opacity="1" fill-opacity="0" stroke="#000000" stroke-width="1" stroke-opacity="1"></use></g></g><g><g><filter id="shadow2588565" x="-61.75" y="-53.62" width="763.5" height="192.25" filterUnits="userSpaceOnUse" primitiveUnits="userSpaceOnUse"><feFlood></feFlood><feComposite in2="SourceAlpha" operator="in"></feComposite><feGaussianBlur stdDeviation="1"></feGaussianBlur><feOffset dx="0" dy="0" result="afterOffset"></feOffset><feFlood flood-color="#484848" flood-opacity="0.5"></feFlood><feComposite in2="afterOffset" operator="in"></feComposite><feMorphology operator="dilate" radius="1"></feMorphology><feComposite in2="SourceAlpha" operator="out"></feComposite></filter><path d="M693.75 42.5C693.75 91.14 526.28 130.63 320 130.63C113.72 130.63 -53.75 91.14 -53.75 42.5C-53.75 -6.14 113.72 -45.62 320 -45.62C526.28 -45.62 693.75 -6.14 693.75 42.5Z" id="eyAuAjEZb" fill="white" fill-opacity="1" filter="url(#shadow2588565)"></path></g><use xlink:href="#bTlaYi9b" opacity="1" fill="url(#gradienta2DtfrZ6)"></use></g></g></g></svg>